<svg xmlns="http://www.w3.org/2000/svg" viewBox="0 0 40 40" fill="none">
  <path stroke="#7a2954" stroke-linecap="round" stroke-linejoin="round" stroke-width="2.5" d="M11.25 5v3.75M28.75 5v3.75M5 31.25V12.5a3.75 3.75 0 013.75-3.75h22.5A3.75 3.75 0 0135 12.5v18.75m-30 0A3.75 3.75 0 008.75 35h22.5A3.75 3.75 0 0035 31.25m-30 0v-12.5A3.75 3.75 0 018.75 15h22.5A3.75 3.75 0 0135 18.75v12.5m-15-10h.012v.012H20v-.012zM20 25h.012v.012H20V25zm0 3.75h.012v.012H20v-.012zM16.25 25h.012v.012h-.012V25zm0 3.75h.012v.012h-.012v-.012zM12.5 25h.012v.012H12.5V25zm0 3.75h.012v.012H12.5v-.012zm11.25-7.5h.012v.012h-.012v-.012zm0 3.75h.012v.012h-.012V25zm0 3.75h.012v.012h-.012v-.012zm3.75-7.5h.012v.012H27.5v-.012zm0 3.75h.012v.012H27.5V25z"/>
</svg>