<svg xmlns="http://www.w3.org/2000/svg" viewBox="0 0 40 40" fill="none">
  <path stroke="#7a2954" stroke-linecap="round" stroke-linejoin="round" stroke-width="2.5" d="M34.822 22.322L32.93 20.43a3.749 3.749 0 01-.702-.974l-1.8-3.6a.69.69 0 00-1.104-.18 1.379 1.379 0 01-1.354.351l-2.121-.606a1.482 1.482 0 00-1.23 2.658l.978.652a1.875 1.875 0 01.286 2.886l-.334.334A1.876 1.876 0 0025 23.277v.684a3.75 3.75 0 01-.534 1.93l-2.191 3.651a3.517 3.517 0 01-3.016 1.708 1.759 1.759 0 01-1.759-1.759V27.54a3.75 3.75 0 00-2.357-3.482l-1.09-.436a3.75 3.75 0 01-2.307-4.098l.012-.07c.077-.465.241-.91.483-1.313l.15-.249a3.75 3.75 0 013.95-1.748l1.963.393a1.875 1.875 0 002.171-1.324l.348-1.216a1.875 1.875 0 00-.965-2.192l-1.108-.554-.152.152a3.75 3.75 0 01-2.651 1.098h-.302c-.413 0-.81.165-1.102.457a1.552 1.552 0 01-2.43-1.895l2.353-3.921a3.75 3.75 0 00.475-1.266m19.88 16.447C34.94 21.564 35 20.79 35 20c0-8.284-6.716-15-15-15-1.775 0-3.479.308-5.06.875m19.882 16.447C33.706 29.503 27.495 35 20 35c-8.284 0-15-6.716-15-15 0-6.509 4.146-12.05 9.94-14.125"/>
</svg>